# 3ds Max Wavefront OBJ Exporter v0.97b - (c)2007 guruware
# File Created: 03.05.2016 16:21:41

mtllib SandMountain2.mtl

#
# object Plane002
#

v  -9.0744 9.8839 -23.4556
v  -5.3226 15.6202 -23.2665
v  -5.3226 11.1629 -41.0933
v  -6.7919 9.8839 -45.3044
v  -3.0107 18.2685 -23.5137
v  -2.8967 14.3177 -35.3683
v  -1.7786 23.1714 -23.4556
v  -1.7786 18.1749 -31.5407
v  -9.0744 9.8839 -11.2531
v  -4.7492 14.6984 -11.2592
v  -3.0107 18.3635 -11.6614
v  -1.7786 24.3322 -15.2439
v  -9.0744 9.8700 -5.7900
v  -5.3325 14.9879 -5.7961
v  -3.0107 19.6958 -6.1982
v  -1.7786 22.8115 -7.0177
v  -9.0744 9.8700 2.5192
v  -5.2693 14.8618 2.5131
v  -3.0107 19.6958 2.1110
v  -1.7786 23.2773 1.2915
v  -8.9255 9.8700 18.1282
v  -4.7492 14.6845 10.1976
v  -3.0107 16.0514 9.7954
v  -1.7786 19.9616 10.3398
v  -6.6746 9.8700 33.0760
v  -4.1158 12.1303 29.2020
v  -3.0107 16.0514 25.5719
v  -1.7786 18.5768 22.5214
# 28 vertices

vn -0.9889 0.3448 -0.0706
vn -0.9556 0.3910 -0.0460
vn -0.7766 0.5575 -0.1112
vn -0.7293 0.5962 -0.0706
vn -1.0489 0.2497 -0.0539
vn -0.6658 0.5768 -0.3399
vn -1.1034 0.1179 -0.0508
vn -0.8993 0.3460 -0.3767
vn -0.9381 0.4129 0.0303
vn -0.9953 0.3397 -0.0219
vn -1.0852 0.1709 -0.0490
vn -1.1104 0.0979 -0.0160
vn -0.9603 0.3864 -0.0242
vn -1.0152 0.3076 -0.0547
vn -1.0726 0.2038 -0.0190
vn -1.0731 0.2011 0.0395
vn -0.9691 0.3757 0.0085
vn -1.0083 0.3201 0.0321
vn -1.0611 0.2203 0.0841
vn -1.0859 0.1701 0.0418
vn -0.8677 0.4813 0.0955
vn -0.8461 0.4929 0.1491
vn -0.9334 0.3845 0.2117
vn -1.0895 0.1570 0.0632
vn -0.7639 0.5627 0.1418
vn -0.8241 0.5162 0.1282
vn -1.0889 0.1647 0.0105
vn -1.0268 0.2883 0.0594
# 28 vertex normals

vt 0.2885 0.2479 0.0000
vt 0.2227 0.3315 0.0000
vt 0.0464 0.0939 0.0000
vt 0.0182 0.0212 0.0000
vt 0.1864 0.3688 0.0000
vt 0.0815 0.1961 0.0000
vt 0.1347 0.4318 0.0000
vt 0.0844 0.2889 0.0000
vt 0.4394 0.3745 0.0000
vt 0.3787 0.4473 0.0000
vt 0.3321 0.4928 0.0000
vt 0.2248 0.5307 0.0000
vt 0.5072 0.4310 0.0000
vt 0.4451 0.5052 0.0000
vt 0.3864 0.5652 0.0000
vt 0.3417 0.5981 0.0000
vt 0.6100 0.5172 0.0000
vt 0.5490 0.5902 0.0000
vt 0.4892 0.6514 0.0000
vt 0.4398 0.6898 0.0000
vt 0.7050 0.5969 0.0000
vt 0.6443 0.6697 0.0000
vt 0.6206 0.6881 0.0000
vt 0.5848 0.7445 0.0000
vt 0.9880 0.8342 0.0000
vt 0.9048 0.8367 0.0000
vt 0.8157 0.8518 0.0000
vt 0.7492 0.8545 0.0000
# 28 texture coords

g Plane002
usemtl Material__47
s 1
f 1/1/1 2/2/2 3/3/3 4/4/4 
f 3/3/3 2/2/2 5/5/5 6/6/6 
f 6/6/6 5/5/5 7/7/7 8/8/8 
f 2/2/2 1/1/1 9/9/9 10/10/10 
f 5/5/5 2/2/2 10/10/10 11/11/11 
f 7/7/7 5/5/5 11/11/11 12/12/12 
f 10/10/10 9/9/9 13/13/13 14/14/14 
f 11/11/11 10/10/10 14/14/14 15/15/15 
f 12/12/12 11/11/11 15/15/15 16/16/16 
f 14/14/14 13/13/13 17/17/17 18/18/18 
f 15/15/15 14/14/14 18/18/18 19/19/19 
f 16/16/16 15/15/15 19/19/19 20/20/20 
f 18/18/18 17/17/17 21/21/21 22/22/22 
f 19/19/19 18/18/18 22/22/22 23/23/23 
f 20/20/20 19/19/19 23/23/23 24/24/24 
f 22/22/22 21/21/21 25/25/25 26/26/26 
f 23/23/23 22/22/22 26/26/26 27/27/27 
f 24/24/24 23/23/23 27/27/27 28/28/28 
# 18 polygons

