# 3ds Max Wavefront OBJ Exporter v0.97b - (c)2007 guruware
# File Created: 03.05.2016 16:05:13

mtllib SandMountain.mtl

#
# object Plane001
#

v  -9.3705 17.1244 19.9205
v  0.9698 24.3369 19.9205
v  1.2856 20.0544 -18.0156
v  -5.2972 15.3166 -18.0156
v  8.8308 28.8262 24.9058
v  -1.9295 25.0423 26.7127
v  2.5758 27.8172 30.7885
v  7.1849 49.4291 37.3782
v  9.5863 49.4291 33.5282
v  -7.4407 17.1244 42.8886
v  0.9698 27.6615 42.5076
v  -9.4842 17.1244 27.8180
v  4.5937 31.3544 42.5076
v  7.1849 49.4291 44.1106
v  7.3602 26.3245 -15.4286
v  7.1849 73.9025 45.0501
v  7.1849 67.5666 40.8748
v  9.5863 66.3299 38.3492
v  9.5863 82.7517 44.5278
v  4.8912 22.2712 -18.2532
v  1.4494 17.6790 -27.0655
v  -5.2972 15.3166 -36.3448
# 22 vertices

vn -0.5721 0.8185 -0.0518
vn -0.5261 0.8391 -0.1384
vn -0.5826 0.7901 -0.1905
vn -0.5313 0.8394 -0.1150
vn -0.5637 0.7316 -0.3833
vn -0.6056 0.7760 -0.1760
vn -0.6558 0.7179 -0.2338
vn -0.9548 0.1510 -0.2560
vn -0.8033 0.2369 -0.5465
vn -0.7558 0.6519 0.0616
vn -0.7213 0.6920 -0.0301
vn -0.6771 0.7358 -0.0115
vn -0.9197 0.3917 0.0251
vn -0.9977 0.0682 0.0000
vn -0.6537 0.7410 -0.1538
vn -0.8662 0.1924 -0.4611
vn -0.8650 0.2372 -0.4422
vn -0.6615 0.2583 -0.7041
vn -0.8323 0.1952 -0.5189
vn -0.4837 0.7359 -0.4739
vn -0.4244 0.9011 -0.0884
vn -0.3305 0.9438 -0.0000
# 22 vertex normals

vt 0.6900 0.1592 0.0000
vt 0.6487 0.3026 0.0000
vt 0.2098 0.1692 0.0000
vt 0.2360 0.0765 0.0000
vt 0.6749 0.4147 0.0000
vt 0.7387 0.3053 0.0000
vt 0.7677 0.3745 0.0000
vt 0.8254 0.6298 0.0000
vt 0.7713 0.6375 0.0000
vt 0.9473 0.2307 0.0000
vt 0.9093 0.3908 0.0000
vt 0.7815 0.1781 0.0000
vt 0.8949 0.4521 0.0000
vt 0.9030 0.6467 0.0000
vt 0.2154 0.2793 0.0000
vt 0.9139 0.8816 0.0000
vt 0.8657 0.8109 0.0000
vt 0.8270 0.8102 0.0000
vt 0.8983 0.9817 0.0000
vt 0.1926 0.2158 0.0000
vt 0.1047 0.1251 0.0000
vt 0.0245 0.0306 0.0000
# 22 texture coords

g Plane001
usemtl Material__47
s 1
f 1/1/1 2/2/2 3/3/3 4/4/4 
f 5/5/5 2/2/2 6/6/6 7/7/7 
f 7/7/7 8/8/8 9/9/9 5/5/5 
f 10/10/10 11/11/11 6/6/6 12/12/12 
f 13/13/13 14/14/14 8/8/8 7/7/7 
f 2/2/2 5/5/5 15/15/15 3/3/3 
f 2/2/2 1/1/1 12/12/12 6/6/6 
f 11/11/11 13/13/13 7/7/7 6/6/6 
f 8/8/8 14/14/14 16/16/16 17/17/17 
f 9/9/9 8/8/8 17/17/17 18/18/18 
f 18/18/18 17/17/17 16/16/16 19/19/19 
f 3/3/3 15/15/15 20/20/20 21/21/21 
f 4/4/4 3/3/3 21/21/21 22/22/22 
# 13 polygons

