# 3ds Max Wavefront OBJ Exporter v0.97b - (c)2007 guruware
# File Created: 22.03.2016 15:09:43

mtllib floorpanel.mtl

#
# object Plane018
#

v  -125.9073 0.1666 205.4728
v  -125.9073 0.1666 52.8020
v  -374.9712 0.1666 52.8020
v  -374.9712 0.1666 205.4728
v  -374.9712 -18.1376 205.4728
v  -125.9073 -18.1376 205.4728
# 6 vertices

vn 0.0000 1.0000 -0.0000
vn 0.0000 0.0000 1.0000
# 2 vertex normals

vt 0.0020 0.6125 0.0000
vt 0.0020 0.0020 0.0000
vt 0.9980 0.0020 0.0000
vt 0.9980 0.6125 0.0000
vt 0.9980 0.6857 0.0000
vt 0.0020 0.6857 0.0000
# 6 texture coords

g Plane018
usemtl wire_087225087
s 1
f 1/1/1 2/2/1 3/3/1 4/4/1 
s off
f 5/5/2 6/6/2 1/1/2 4/4/2 
# 2 polygons

